<svg width="148" height="134" viewBox="0 0 148 134" fill="none" xmlns="http://www.w3.org/2000/svg">
<rect x="86" y="3" width="6" height="13" fill="white"/>
<rect x="71.3969" y="3.7189" width="4" height="95.368" transform="rotate(-50 71.3969 3.7189)" fill="white"/>
<rect x="73.9217" y="0.603516" width="4" height="95.37" transform="rotate(50 73.9217 0.603516)" fill="white"/>
<rect x="71.442" y="13.596" width="4" height="76.4975" transform="rotate(-50 71.442 13.596)" fill="white"/>
<rect x="74.0076" y="10.5819" width="4" height="74.991" transform="rotate(50 74.0076 10.5819)" fill="white"/>
<rect x="22" y="55" width="4" height="74.991" fill="white"/>
<rect x="22" y="134" width="4" height="105" transform="rotate(-90 22 134)" fill="white"/>
<rect x="123" y="55" width="4" height="74.991" fill="white"/>
<path d="M52.1027 80V62.125H60.4027V63.175H53.3027V69.75H59.7277V70.775H53.3027V78.95H60.6777V80H52.1027ZM65.9816 74.375L63.6566 80H62.4816L69.2816 63.675H69.9566L76.8066 80H75.5316L73.1816 74.375H65.9816ZM69.5566 65.525C69.3066 66.275 69.0816 66.9 68.8816 67.4L66.3816 73.4H72.7816L70.3066 67.425C69.9233 66.4917 69.6733 65.8583 69.5566 65.525ZM83.3736 64.475C82.4736 64.475 81.7403 64.6917 81.1736 65.125C80.607 65.5583 80.3236 66.1667 80.3236 66.95C80.3236 67.85 80.6986 68.6583 81.4486 69.375C81.982 69.8917 82.6653 70.4417 83.4986 71.025C84.3486 71.5917 84.932 72 85.2486 72.25C85.5653 72.5 85.9486 72.8417 86.3986 73.275C87.2153 74.0917 87.6236 75.0333 87.6236 76.1C87.6236 77.4833 87.157 78.5333 86.2236 79.25C85.307 79.95 84.0153 80.3 82.3486 80.3C80.6986 80.3 79.3153 79.8667 78.1986 79L78.7986 78.125C79.932 78.8917 81.132 79.275 82.3986 79.275C83.6653 79.275 84.6486 79.0083 85.3486 78.475C86.0653 77.9417 86.4236 77.1917 86.4236 76.225C86.4236 75.3917 86.0653 74.625 85.3486 73.925C84.8486 73.425 84.1736 72.8833 83.3236 72.3C82.4903 71.7167 81.907 71.3 81.5736 71.05C81.2403 70.7833 80.8486 70.4333 80.3986 70C79.5486 69.15 79.1236 68.1667 79.1236 67.05C79.1236 65.9333 79.5153 65.0583 80.2986 64.425C81.0986 63.7917 82.1986 63.475 83.5986 63.475C84.9986 63.475 86.257 63.75 87.3736 64.3L86.9486 65.225C85.9153 64.725 84.7236 64.475 83.3736 64.475ZM96.7824 80H95.6574V74.2L89.5324 63.775H90.9074L95.6324 71.825C95.9991 72.5583 96.2074 72.95 96.2574 73C96.3574 72.7833 96.5658 72.4 96.8824 71.85L101.607 63.775H102.907L96.7824 74.25V80Z" fill="white"/>
<path d="M39.847 117V100.624C41.3037 100.517 42.5227 100.463 43.504 100.463C45.068 100.463 46.356 100.869 47.368 101.682C48.38 102.479 48.886 103.614 48.886 105.086C48.886 106.083 48.5947 107.01 48.012 107.869C47.4294 108.728 46.7777 109.41 46.057 109.916C46.6244 110.698 47.322 111.633 48.15 112.722C48.9934 113.795 49.5377 114.47 49.783 114.746C50.7184 115.743 51.7764 116.31 52.957 116.448L52.934 117.184C51.9987 117.169 51.2397 117.031 50.657 116.77C50.0744 116.494 49.5147 116.08 48.978 115.528C48.4567 114.976 47.1457 113.259 45.045 110.376C43.5424 110.376 42.1777 110.33 40.951 110.238V117H39.847ZM44.378 109.456C45.0527 109.456 45.7734 109.011 46.54 108.122C47.3067 107.233 47.69 106.205 47.69 105.04C47.69 103.859 47.2914 102.97 46.494 102.372C45.712 101.759 44.6694 101.452 43.366 101.452C42.676 101.452 41.871 101.483 40.951 101.544V109.341C42.1777 109.418 43.32 109.456 44.378 109.456ZM56.2967 114.815C54.7787 113.174 54.0197 111.158 54.0197 108.766C54.0197 106.374 54.7787 104.365 56.2967 102.74C57.83 101.099 59.762 100.279 62.0927 100.279C64.4234 100.279 66.3554 101.099 67.8887 102.74C69.422 104.365 70.1887 106.374 70.1887 108.766C70.1887 111.158 69.422 113.174 67.8887 114.815C66.3554 116.456 64.4234 117.276 62.0927 117.276C59.762 117.276 57.83 116.456 56.2967 114.815ZM57.1247 103.453C55.852 104.879 55.2157 106.65 55.2157 108.766C55.2157 110.882 55.852 112.661 57.1247 114.102C58.4127 115.543 60.0687 116.264 62.0927 116.264C64.132 116.264 65.788 115.543 67.0607 114.102C68.3487 112.661 68.9927 110.882 68.9927 108.766C68.9927 106.65 68.3487 104.879 67.0607 103.453C65.788 102.012 64.132 101.291 62.0927 101.291C60.0534 101.291 58.3974 102.012 57.1247 103.453ZM76.6014 114.815C75.0834 113.174 74.3244 111.158 74.3244 108.766C74.3244 106.374 75.0834 104.365 76.6014 102.74C78.1347 101.099 80.0667 100.279 82.3974 100.279C84.7281 100.279 86.6601 101.099 88.1934 102.74C89.7267 104.365 90.4934 106.374 90.4934 108.766C90.4934 111.158 89.7267 113.174 88.1934 114.815C86.6601 116.456 84.7281 117.276 82.3974 117.276C80.0667 117.276 78.1347 116.456 76.6014 114.815ZM77.4294 103.453C76.1567 104.879 75.5204 106.65 75.5204 108.766C75.5204 110.882 76.1567 112.661 77.4294 114.102C78.7174 115.543 80.3734 116.264 82.3974 116.264C84.4367 116.264 86.0927 115.543 87.3654 114.102C88.6534 112.661 89.2974 110.882 89.2974 108.766C89.2974 106.65 88.6534 104.879 87.3654 103.453C86.0927 102.012 84.4367 101.291 82.3974 101.291C80.3581 101.291 78.7021 102.012 77.4294 103.453ZM103.369 116.149H102.748L97.9411 104.511C97.6651 103.867 97.4427 103.3 97.2741 102.809L97.0441 104.557L95.1581 117H94.0311L96.7451 100.417H97.3891L102.518 112.607C102.779 113.174 102.986 113.711 103.139 114.217C103.185 114.048 103.423 113.519 103.852 112.63L109.579 100.417H110.2L112.707 117H111.557L109.763 104.511C109.64 103.729 109.579 103.139 109.579 102.74C109.564 102.755 109.525 102.832 109.464 102.97C109.418 103.093 109.326 103.307 109.188 103.614C109.065 103.905 108.935 104.212 108.797 104.534L103.369 116.149Z" fill="white"/>
<rect x="36" y="85" width="2" height="10" fill="white"/>
<rect x="112" y="88" width="2" height="7" fill="white"/>
<rect x="36" y="92" width="1" height="77" transform="rotate(-90 36 92)" fill="white"/>
<path d="M39 90.5C39 89.6716 39.6716 89 40.5 89H48.5C49.3284 89 50 89.6716 50 90.5V90.5C50 91.3284 49.3284 92 48.5 92H40.5C39.6716 92 39 91.3284 39 90.5V90.5Z" fill="white"/>
<path d="M39 90.5C39 89.6716 39.6716 89 40.5 89H48.5C49.3284 89 50 89.6716 50 90.5V90.5C50 91.3284 49.3284 92 48.5 92H40.5C39.6716 92 39 91.3284 39 90.5V90.5Z" fill="white"/>
<path d="M39 90.5C39 89.6716 39.6716 89 40.5 89H48.5C49.3284 89 50 89.6716 50 90.5V90.5C50 91.3284 49.3284 92 48.5 92H40.5C39.6716 92 39 91.3284 39 90.5V90.5Z" fill="white"/>
<path d="M51 91C51 90.4477 51.4477 90 52 90H110C110.552 90 111 90.4477 111 91V91C111 91.5523 110.552 92 110 92H52C51.4477 92 51 91.5523 51 91V91Z" fill="white"/>
<path d="M51 91C51 90.4477 51.4477 90 52 90H110C110.552 90 111 90.4477 111 91V91C111 91.5523 110.552 92 110 92H52C51.4477 92 51 91.5523 51 91V91Z" fill="white"/>
<path d="M51 91C51 90.4477 51.4477 90 52 90H110C110.552 90 111 90.4477 111 91V91C111 91.5523 110.552 92 110 92H52C51.4477 92 51 91.5523 51 91V91Z" fill="white"/>
<rect x="66.5" y="33.5" width="16" height="16" stroke="white"/>
<line x1="74.5" y1="34" x2="74.5" y2="49" stroke="white"/>
<line x1="67" y1="41.5" x2="82" y2="41.5" stroke="white"/>
</svg>
